<?xml version="1.0" encoding="UTF-8" standalone="no"?><svg height="67" id="Layer_1" version="1.1" viewBox="0 0 67 67" width="67" xml:space="preserve" xmlns="http://www.w3.org/2000/svg" xmlns:svg="http://www.w3.org/2000/svg"><defs id="defs7" /><path id="path2" style="clip-rule:evenodd;fill:#0886fe;fill-opacity:1;fill-rule:evenodd" d="M 34,4 C 17.432017,4 4,17.431017 4,34 4,50.567983 17.432017,64 34,64 50.567983,64 64,50.567983 64,34 64,17.431017 50.567983,4 34,4 Z M 19.630859,20.5 c 1.490876,0.02254 3.33204,0.959846 4.738282,2.015625 C 28.267154,25.44201 32.460632,31.374342 34,34.558594 35.539485,31.374575 39.732728,25.441952 43.630859,22.515625 46.443456,20.404066 51,18.769895 51,23.96875 c 0,1.038285 -0.596172,8.721309 -0.945312,9.96875 -1.213619,4.336964 -5.634588,5.442938 -9.56836,4.773438 6.87616,1.170297 8.625323,5.047388 4.847656,8.923828 -7.17454,7.362123 -10.312916,-1.847272 -11.117187,-4.207032 -0.14737,-0.4326 -0.215785,-0.634978 -0.216797,-0.46289 -8.94e-4,-0.172092 -0.06942,0.03029 -0.216797,0.46289 -0.803918,2.35976 -3.942242,11.569387 -11.117187,4.207032 -3.777729,-3.87644 -2.028619,-7.753767 4.847656,-8.923828 -3.933889,0.6695 -8.354922,-0.436481 -9.56836,-4.773438 C 17.596159,32.689941 17,25.006915 17,23.96875 17,21.369323 18.139984,20.477461 19.630859,20.5 Z" /></svg>
