<?xml version="1.0" ?><!DOCTYPE svg  PUBLIC '-//W3C//DTD SVG 1.1//EN'  'http://www.w3.org/Graphics/SVG/1.1/DTD/svg11.dtd'><svg height="67px" id="Layer_1" style="enable-background:new 0 0 67 67;" version="1.1" viewBox="0 0 67 67" width="67px" xml:space="preserve" xmlns="http://www.w3.org/2000/svg" xmlns:xlink="http://www.w3.org/1999/xlink"><g transform="matrix(0.07050613,0,0,0.07050613,5.8132356,5.952732)"><path style="clip-rule:evenodd;fill:#ba0305;fill-rule:evenodd;fill-opacity:1" d="m 672.516,601.319 v -0.35 c 3.235,-1.045 5.787,-3.307 5.787,-6.784 0,-2.787 -1.19,-4.88 -2.892,-6.095 -1.875,-1.394 -4.257,-2.263 -9.532,-2.263 -4.597,0 -8.174,0.521 -10.726,0.869 v 28.549 h 6.468 v -11.314 h 3.066 c 3.572,0 5.277,1.394 5.788,4.352 0.85,3.481 1.359,5.918 2.21,6.963 h 6.813 c -0.515,-1.045 -1.195,-2.612 -2.045,-6.963 -0.85,-3.832 -2.212,-6.095 -4.937,-6.964 z m -7.659,-2.089 h -3.065 v -8.182 c 0.681,-0.176 1.875,-0.35 3.575,-0.35 4.087,0 5.958,1.743 5.958,4.351 0,2.964 -2.896,4.181 -6.468,4.181 z m 1.361,-27.329 h -0.17 c -16.001,0 -28.766,12.533 -28.766,28.548 0,16.016 12.765,28.724 28.766,28.724 16.001,0 28.597,-12.708 28.597,-28.724 0,-16.014 -12.596,-28.548 -28.427,-28.548 z m 0,51.353 c -12.424,0 -21.788,-10.096 -21.788,-22.805 0,-12.533 9.364,-22.809 21.449,-22.809 h 0.169 c 12.255,0 21.448,10.275 21.448,22.984 0,12.534 -9.193,22.805 -21.278,22.63 z M 212.84783,166.10371 106.69572,621.21153 h 0.1385 l -1.91139,8.28276 h 85.12668 l 8.72597,-37.42472 c 0.82399,-3.53301 4.36092,-6.39904 7.89493,-6.39904 h 295.79652 c 3.534,0 5.72917,2.86603 4.90318,6.39904 l -6.78688,29.14196 h 0.0831 l -1.88369,8.08885 h 0.1108 l -0.0277,0.1108 h 87.06579 l 1.91141,-8.19965 h 0.1662 L 694.18895,166.10371 h -86.98267 l -9.55702,41.02593 c -0.826,3.53399 -4.36092,6.39904 -7.89493,6.39903 H 293.9578 c -3.53399,0 -5.72717,-2.86504 -4.90317,-6.39903 l 9.55703,-41.02593 z m 417.07366,20.3052 h 31.4412 c 3.534,0 5.72617,2.86505 4.90316,6.39905 l -5.37409,23.07534 c -0.82599,3.53401 -4.36092,6.39905 -7.89491,6.39905 h -31.4412 c -3.53299,0 -5.72916,-2.86504 -4.90316,-6.39905 l 5.37409,-23.07534 c 0.822,-3.534 4.35992,-6.39905 7.89491,-6.39905 z m -396.15903,0.11082 h 31.35808 c 3.53401,0 5.72718,2.86504 4.90317,6.39904 l -5.37409,23.01993 c -0.824,3.53401 -4.36093,6.39905 -7.89492,6.39905 h -31.35809 c -3.533,0 -5.72716,-2.86604 -4.90316,-6.39905 l 5.37408,-23.01993 c 0.824,-3.534 4.36093,-6.39904 7.89493,-6.39904 z m 52.41122,58.28394 h 296.29516 c 3.534,0 5.72417,2.86504 4.90316,6.39903 l -69.55843,298.20657 c -0.82701,3.53699 -4.36194,6.39904 -7.89493,6.39904 h -17.67356 c -4.61482,-54.17585 -40.96452,-96.36237 -92.13515,-106.09672 40.84401,-5.31779 77.94638,-39.63926 85.59761,-81.30388 8.32599,-45.35299 -21.37908,-82.10721 -66.34509,-82.10721 -44.96799,0 -88.15728,36.75422 -96.48429,82.10721 -7.04351,38.37462 13.19519,70.4983 46.81552,79.50329 -60.03929,3.52507 -114.7804,48.45631 -134.98937,107.89731 h -21.08083 c -3.53401,0 -5.72717,-2.86205 -4.90317,-6.39904 L 278.30646,251.2027 c 0.824,-3.53399 4.33323,-6.39903 7.86722,-6.39903 z m 325.82496,18.42149 h 31.4412 c 3.53399,-0.001 5.73015,2.86203 4.90316,6.39904 l -5.3741,23.07534 c -0.82699,3.53599 -4.35992,6.39905 -7.89492,6.39905 h -31.44119 c -3.53401,0 -5.72917,-2.86306 -4.90317,-6.39905 l 5.37409,-23.07534 c 0.822,-3.536 4.36093,-6.39904 7.89493,-6.39904 z m -396.24214,0.1108 h 31.19187 c 1.847,0 3.30693,0.79591 4.18292,2.0499 1.004,1.16901 1.43426,2.84027 0.99726,4.70927 l -5.29098,22.68751 c -0.824,3.53401 -4.35893,6.39905 -7.89493,6.39905 h -31.4689 c -3.537,0 -5.72815,-2.86504 -4.90316,-6.39905 l 1.57898,-6.73145 c 0.026,-0.32101 0.0328,-0.63656 0.11081,-0.96957 l 3.6012,-15.34662 c 0.82399,-3.534 4.35791,-6.39904 7.89493,-6.39904 z m 378.01455,78.0351 h 31.44119 c 3.53401,0 5.72817,2.86605 4.90317,6.39904 l -5.37409,23.10304 c -0.82699,3.53401 -4.35493,6.39905 -7.89492,6.39905 h -31.46889 c -3.53401,0 -5.72918,-2.86504 -4.90318,-6.39905 l 5.4018,-23.10304 c 0.822,-3.53399 4.35992,-6.39904 7.89492,-6.39904 z m -396.13133,0.22161 h 31.10877 c 3.534,0 5.72716,2.86505 4.90316,6.39905 l -5.37409,23.01994 c -0.824,3.536 -4.36092,6.39904 -7.89493,6.39904 h -31.08107 c -3.533,0 -5.72716,-2.86304 -4.90316,-6.39904 l 5.37409,-23.01994 c 0.82399,-3.534 4.33322,-6.39905 7.86723,-6.39905 z m -18.36609,78.56144 h 31.33038 c 3.534,0 5.72717,2.86504 4.90316,6.39904 l -5.34639,22.96453 c -0.82499,3.53301 -4.36092,6.39905 -7.89491,6.39905 h -31.3304 c -3.53599,0 -5.72716,-2.86604 -4.90316,-6.39905 l 5.34638,-22.96453 c 0.82501,-3.534 4.36093,-6.39904 7.89494,-6.39904 z m 396.10363,0 h 31.44119 c 3.53401,-0.001 5.75288,2.86405 4.93086,6.39904 l -5.34638,22.85373 c -0.82699,3.53401 -4.35992,6.39905 -7.89492,6.39905 h -31.44119 c -3.533,0 -5.73017,-2.86504 -4.90317,-6.39905 l 5.31869,-22.85373 c 0.826,-3.534 4.36093,-6.39904 7.89492,-6.39904 z m -414.30351,78.0351 h 31.57969 c 3.53401,0 5.72817,2.88874 4.90318,6.42675 l -5.4018,23.07534 c -0.824,3.53899 -4.36093,6.39904 -7.89492,6.39904 h -31.55201 c -3.534,0 -5.72716,-2.86005 -4.90316,-6.39904 l 5.37409,-23.07534 c 0.825,-3.53801 4.36092,-6.42675 7.89493,-6.42675 z m 396.10363,0 h 31.44119 c 3.53401,0 5.72916,2.88874 4.90317,6.42675 l -5.37409,23.07534 c -0.826,3.53899 -4.36093,6.39904 -7.89493,6.39904 h -31.4412 c -3.53299,0 -5.73015,-2.86005 -4.90316,-6.39904 l 5.3741,-23.07534 c 0.822,-3.53801 4.35992,-6.42675 7.89492,-6.42675 z m -414.16501,77.45336 h 31.33039 c 3.535,0 5.72716,2.86205 4.90317,6.39905 l -5.37409,22.93684 c -0.824,3.53801 -4.33323,6.39905 -7.86723,6.39905 h -31.33038 c -3.53401,0 -5.72717,-2.86104 -4.90317,-6.39905 l 5.34639,-22.93684 c 0.824,-3.537 4.36093,-6.39903 7.89492,-6.39905 z m 396.10364,0 h 31.19189 c 3.53399,0 5.75185,2.86205 4.93086,6.39905 l -5.4018,23.07536 c -0.82699,3.53299 -4.35992,6.39903 -7.89492,6.39903 h -31.19188 c -3.53401,0 -5.72417,-2.86504 -4.90316,-6.39903 l 5.37408,-23.07536 c 0.82701,-3.537 4.35993,-6.39903 7.89493,-6.39905 z M 399.7775,823.29392 c -234.98666,0 -425.494918,-190.50826 -425.494918,-425.49492 0,-235.00084 190.508258,-425.494918 425.494918,-425.494918 234.98666,0 425.49492,190.494078 425.49492,425.494918 0,234.98666 -190.50826,425.49492 -425.49492,425.49492 z"/></g></svg>
