<?xml version="1.0" ?><!DOCTYPE svg  PUBLIC '-//W3C//DTD SVG 1.1//EN'  'http://www.w3.org/Graphics/SVG/1.1/DTD/svg11.dtd'><svg height="67px" id="Layer_1" style="enable-background:new 0 0 67 67;" version="1.1" viewBox="0 0 67 67" width="67px" xml:space="preserve" xmlns="http://www.w3.org/2000/svg" xmlns:xlink="http://www.w3.org/1999/xlink"><path d="M 34 4 C 17.432 4 4 17.431 4 34 C 4 50.568 17.432 64 34 64 C 50.568 64 64 50.568 64 34 C 64 17.431 50.568 4 34 4 z M 35.351562 17.632812 C 38.009942 17.672759 40.167 18.523212 42.253906 20.25 C 44.93317 22.466925 47.175951 26.912003 47.769531 31.179688 C 48.019115 32.97414 47.987087 36.793298 47.707031 38.621094 C 46.870375 44.081549 44.074094 47.991744 39.712891 49.802734 L 38.572266 50.277344 L 29.931641 50.322266 L 21.289062 50.369141 L 23.572266 49.042969 C 24.827605 48.313924 26.368422 47.420415 26.996094 47.056641 C 34.583845 42.659053 37.72295 39.444275 38.974609 34.791016 C 39.460381 32.985065 39.468701 30.578307 38.992188 29.3125 C 38.202509 27.214867 35.959399 26.028493 34.205078 26.78125 C 33.565735 27.055586 32.701482 27.941981 32.466797 28.564453 C 32.225119 29.205496 32.251311 30.543119 32.517578 31.167969 C 32.905784 32.079047 33.489968 32.477658 34.539062 32.552734 C 35.304335 32.607504 35.551596 32.558147 35.902344 32.28125 C 36.138089 32.095176 36.367424 31.753304 36.412109 31.519531 C 36.483519 31.145996 36.451326 31.106378 36.146484 31.205078 C 34.719385 31.667158 34.087891 31.36418 34.087891 30.216797 C 34.087891 29.230926 34.479305 28.813462 35.484375 28.726562 C 37.330255 28.566976 38.385278 30.376718 37.505859 32.193359 C 36.590671 34.083875 33.961466 34.428466 32.398438 32.863281 C 31.205389 31.668587 30.867159 29.942702 31.496094 28.261719 C 31.906551 27.164677 32.595028 26.338105 33.501953 25.855469 C 34.453952 25.348839 36.655369 25.347312 37.59375 25.851562 C 39.692164 26.979653 40.666782 29.652208 40.271484 33.197266 C 39.885051 36.662838 38.127172 39.835976 34.84375 42.998047 C 34.159093 43.657403 33.599609 44.226154 33.599609 44.261719 C 33.599609 44.396583 35.24818 44.318393 36.076172 44.144531 C 38.599523 43.614666 40.720558 41.97161 41.896484 39.632812 C 42.709879 38.015048 43.005304 36.989722 43.300781 34.769531 C 43.804914 30.981475 43.438447 27.897466 42.154297 25.136719 C 40.849898 22.332446 38.777051 20.445417 36.287109 19.796875 C 34.25542 19.267687 31.263889 19.600719 29.082031 20.599609 L 28.205078 21.001953 L 28.251953 31.5625 C 28.286343 39.205325 28.353407 42.213548 28.490234 42.445312 C 28.594239 42.621473 28.923162 42.848381 29.222656 42.949219 C 29.522157 43.050062 29.767578 43.231339 29.767578 43.351562 C 29.767578 43.471786 29.401458 43.78788 28.953125 44.054688 C 27.24426 45.071638 21.50627 48.402344 21.462891 48.402344 C 21.413351 48.402344 21.41552 48.382591 21.769531 46.119141 C 22.101301 43.998001 22.304557 41.936706 22.59375 37.738281 C 22.883786 33.527561 22.937569 21.626467 22.669922 20.902344 C 22.576622 20.649926 21.901589 19.877136 21.171875 19.185547 C 19.489681 17.591235 19.704769 17.370036 21.912109 18.423828 L 23.410156 19.138672 L 25.365234 19.128906 C 27.132951 19.119706 27.574682 19.051663 29.931641 18.423828 C 31.982266 17.877591 33.756535 17.608845 35.351562 17.632812 z " style="clip-rule:evenodd;fill:#a03a3b;fill-rule:evenodd;fill-opacity:1"/></svg>
