<?xml version="1.0" encoding="UTF-8" standalone="no"?>
<svg
   id="svg1187"
   xml:space="preserve"
   viewBox="0 0 67 67"
   version="1.1"
   enable-background="new 0 0 67 67"
   sodipodi:docname="mastodon.svg"
   inkscape:version="1.2.2 (b0a8486541, 2022-12-01)"
   xmlns:inkscape="http://www.inkscape.org/namespaces/inkscape"
   xmlns:sodipodi="http://sodipodi.sourceforge.net/DTD/sodipodi-0.dtd"
   xmlns="http://www.w3.org/2000/svg"
   xmlns:svg="http://www.w3.org/2000/svg"
   xmlns:rdf="http://www.w3.org/1999/02/22-rdf-syntax-ns#"
   xmlns:cc="http://creativecommons.org/ns#"
   xmlns:dc="http://purl.org/dc/elements/1.1/"><sodipodi:namedview
     id="namedview1370"
     pagecolor="#ffffff"
     bordercolor="#666666"
     borderopacity="1.0"
     inkscape:showpageshadow="2"
     inkscape:pageopacity="0.0"
     inkscape:pagecheckerboard="0"
     inkscape:deskcolor="#d1d1d1"
     showgrid="false"
     inkscape:zoom="5.9402985"
     inkscape:cx="14.982412"
     inkscape:cy="33.5"
     inkscape:window-width="1920"
     inkscape:window-height="1024"
     inkscape:window-x="1920"
     inkscape:window-y="0"
     inkscape:window-maximized="1"
     inkscape:current-layer="g1185"
     showguides="true" /><defs
     id="defs1191" /><metadata
     id="metadata1181"><rdf:RDF><cc:Work
         rdf:about=""><dc:format>image/svg+xml</dc:format><dc:type
           rdf:resource="http://purl.org/dc/dcmitype/StillImage" /></cc:Work></rdf:RDF></metadata><g
     id="g1185"
     transform="matrix(1.0112249,0,0,1.0112249,10.983364,27.521761)"><path
       id="path1372"
       style="fill:#2b90d9;stroke-width:0.169595;stroke-linecap:square;stroke-linejoin:round;fill-opacity:1"
       d="M 22.761144 -23.260662 A 29.66699 29.66699 0 0 0 -6.9058466 6.4063286 A 29.66699 29.66699 0 0 0 22.761144 36.07332 A 29.66699 29.66699 0 0 0 52.428135 6.4063286 A 29.66699 29.66699 0 0 0 22.761144 -23.260662 z M 22.712858 -9.7540694 L 22.815225 -9.7540694 C 26.947269 -9.7202805 30.924998 -9.2727006 33.241164 -8.2089136 C 33.241164 -8.2089136 37.834139 -6.1540727 37.834139 0.8572879 C 37.834139 0.8572879 37.891182 6.0306579 37.192899 9.6221841 C 36.749727 11.902133 33.225149 14.397935 29.175472 14.881508 C 27.063741 15.133482 24.984022 15.363701 22.766939 15.262003 C 19.141105 15.095879 16.279216 14.396715 16.279216 14.396715 C 16.279216 14.749686 16.301345 15.086749 16.344885 15.401067 C 16.816269 18.979359 19.893006 19.192978 22.807499 19.292928 C 25.749156 19.393578 28.368128 18.568636 28.368128 18.568636 L 28.489809 21.228235 C 28.489809 21.228235 26.432299 22.332607 22.766939 22.535824 C 20.745757 22.646915 18.236518 22.484812 15.313494 21.711097 C 8.9739413 20.033139 7.8820111 13.274645 7.71519 6.4179173 C 7.6643451 4.382107 7.6958756 2.4628102 7.6958756 0.8572879 C 7.6958756 -6.1540727 12.290783 -8.2089136 12.290783 -8.2089136 C 14.607122 -9.2727006 18.580816 -9.7202865 22.712858 -9.7540694 z M 18.036831 -4.2745607 C 16.549198 -4.2745607 15.351695 -3.7533493 14.436618 -2.7332678 C 13.549227 -1.7131865 13.105852 -0.33312284 13.105852 1.4019553 L 13.105852 9.8906549 L 16.470429 9.8906549 L 16.470429 1.6511117 C 16.470429 -0.085882137 17.200758 -0.96792736 18.662619 -0.96792736 C 20.278936 -0.96792736 21.088513 0.077537654 21.088513 2.1455615 L 21.088513 6.6574164 L 24.433776 6.6574164 L 24.433776 2.1455615 C 24.433776 0.077537654 25.243352 -0.96792736 26.85967 -0.96792736 C 28.321532 -0.96792736 29.05186 -0.085882137 29.05186 1.6511117 L 29.05186 9.8906549 L 32.416437 9.8906549 L 32.416437 1.4019553 C 32.416437 -0.33312284 31.972886 -1.7131865 31.085671 -2.7332678 C 30.170419 -3.7533493 28.972918 -4.2745607 27.485458 -4.2745607 C 25.764136 -4.2745607 24.461012 -3.6142168 23.599391 -2.290967 L 22.761144 -0.88680668 L 21.922897 -2.290967 C 21.061105 -3.6142168 19.757979 -4.2745607 18.036831 -4.2745607 z " /></g><g
     transform="matrix(0.38188348,0,0,0.38188348,21.830678,18.522863)"
     id="g1738" /></svg>
