<?xml version="1.0" encoding="UTF-8"?><svg enable-background="new 0 0 67 67" version="1.1" viewBox="0 0 67 67" xml:space="preserve" xmlns="http://www.w3.org/2000/svg" xmlns:cc="http://creativecommons.org/ns#" xmlns:dc="http://purl.org/dc/elements/1.1/" xmlns:rdf="http://www.w3.org/1999/02/22-rdf-syntax-ns#"><metadata><rdf:RDF><cc:Work rdf:about=""><dc:format>image/svg+xml</dc:format><dc:type rdf:resource="http://purl.org/dc/dcmitype/StillImage"/><dc:title/></cc:Work></rdf:RDF></metadata><g transform="translate(.451 -.5859)"><path d="m33.549 4.5859a30 30 0 0 0-30 30 30 30 0 0 0 30 30 30 30 0 0 0 30-30 30 30 0 0 0-30-30zm-4.9414 13.313c0.4055 0 0.44141 0.06501 0.44141 0.79492v0.79492l7.9023-0.0039c4.3463-0.0019 8.4069-0.07687 9.0234-0.16602 1.3652-0.19738 2.049-0.0064 1.8809 0.52344-0.0643 0.20248-0.03193 0.35352 0.07617 0.35352 0.12393 0 0.18945 0.78557 0.18945 2.2949 0 1.9229-0.04373 2.2949-0.26562 2.2949-0.23184 0-0.26562 1.0774-0.26562 8.625 0 4.7429 0.05997 8.683 0.13281 8.7559 0.20918 0.20938 0.0338 3.3527-0.19531 3.5-0.23853 0.15334-2.1576 0.17413-2.6973 0.0293-0.20669-0.05547-0.47583-0.3134-0.59961-0.57226l-0.22461-0.4707-0.11328 0.44141c-0.0972 0.38086-0.22687 0.44986-0.93945 0.49609l-0.82617 0.05273-0.04883 1.9766-0.05078 1.9785-0.4668 0.05273c-0.36292 0.04203-0.44621 0.12967-0.37695 0.39453 0.049 0.18726 0.03992 0.54079-0.02148 0.78516l-0.11133 0.44531h-14.609l-0.10742-0.39844c-0.05856-0.21853-0.10805-0.56947-0.10938-0.78125-0.0017-0.26392-0.12609-0.40273-0.39844-0.44141-0.38153-0.05418-0.3994-0.13658-0.44727-2.0352l-0.05078-1.9766-0.82617-0.05273c-0.71398-0.04632-0.8399-0.11449-0.93359-0.49609l-0.10742-0.44141-0.13477 0.4082c-0.07401 0.2241-0.33144 0.48266-0.57227 0.57422-0.51579 0.1961-2.5331 0.2184-2.8242 0.03125-0.22911-0.14728-0.40449-3.2906-0.19531-3.5 0.20805-0.20825 0.16366-17.381-0.04492-17.381-0.09712 0-0.17578-0.10864-0.17578-0.24219 0-0.26799-0.74639-0.46289-1.7676-0.46289-0.36447 0-0.74011-0.09929-0.83594-0.2207s-0.22028-0.78812-0.27539-1.4805c-0.09567-1.202-0.07858-1.2787 0.38281-1.7207 0.4171-0.3996 0.63554-0.46289 1.5977-0.46289 1.0301 0 1.1074-0.02694 1.0215-0.35547-0.14431-0.55184 0.34881-0.70044 1.7383-0.52148 1.6621 0.21407 4.0963 0.21111 4.2305-0.0059 0.06003-0.09713 0.65984-0.17773 1.334-0.17773h1.2266v-0.61719c0-0.54155 0.05459-0.61914 0.44141-0.61914zm-3.4961 4.5918c-0.35376 0-0.6543 0.3807-0.6543 0.83008 0 0.31551 0.09846 0.40625 0.44141 0.40625 0.38682 0 0.44141-0.07564 0.44141-0.61719 0-0.3894-0.08388-0.61914-0.22852-0.61914zm11.055 0c-3.5256 0-6.4102 0.06287-6.4102 0.14062 0 0.07777 0.09929 0.35577 0.2207 0.61719l0.2207 0.47656h6.4004l6.4023 2e-3v-0.40625c0-0.82422-0.04732-0.83008-6.834-0.83008zm-11.709 1.9434v3.9434c0 2.1696-0.05168 5.8455-0.11523 8.168l-0.11524 4.2227 3.0918-0.05273 3.0918-0.05078 0.19727-0.66211c0.10906-0.36404 0.43501-0.88653 0.72266-1.1621l0.52344-0.50195-0.77344-1.5215c-1.225-2.4121-1.5179-3.1321-1.3984-3.4434 0.06137-0.15994-0.0092-0.47565-0.1582-0.70312-0.14905-0.22748-0.32478-1.002-0.39063-1.7207-0.06993-0.76333-0.29567-1.7019-0.54297-2.2559-0.49516-1.1093-0.49206-1.082-0.19336-1.082 0.68051 0 2.045 3.015 2.1836 4.8242 0.06904 0.90127 0.26201 1.6262 0.66406 2.5039 0.31143 0.67988 0.66649 1.4725 0.78906 1.7617 0.17141 0.40451 0.25562 0.4664 0.36133 0.26562 0.32507-0.61745 0.53921-3.125 0.50977-5.9453-0.03463-3.3179 0.03558-3.5859 0.92383-3.5859 0.84931 0 0.82278-0.14812 0.92773 5.2969 0.03651 1.8939 0.14764 3.6813 0.24609 3.9727l0.17774 0.53125 0.23242-0.53125c0.12746-0.29138 0.48661-1.0858 0.79688-1.7656 0.40241-0.88178 0.58802-1.5908 0.64844-2.4727 0.08699-1.2696 1.0268-3.8249 1.666-4.5312 0.2811-0.31061 0.86855-0.46504 0.72852-0.19141-0.79627 1.556-1.0215 2.2686-1.0215 3.2363 0 0.6215-0.11505 1.2858-0.27734 1.5996-0.15272 0.29532-0.2296 0.66013-0.17188 0.81055 0.105 0.27362-0.04734 0.65567-1.334 3.3359-0.37831 0.78808-0.6875 1.5075-0.6875 1.5996 0 0.09215 0.22936 0.38964 0.51172 0.66016 0.28235 0.27051 0.56382 0.75788 0.625 1.084l0.11133 0.59375 3.0918 0.05078 3.0918 0.05273-0.03125-7.2402c-0.0171-3.9821-0.07174-7.6581-0.12109-8.168l-0.08984-0.92578h-6.4199c-5.9184 0-6.4219 0.02289-6.4219 0.29883 0 0.34907-0.84898 1.2891-1.1641 1.2891-0.13187 0-0.17665 0.14372-0.11719 0.37109 0.05688 0.21751-0.0062 0.43606-0.15039 0.52734-0.27982 0.17719-2.1047 0.21686-2.5273 0.05469-0.30971-0.11885-0.38126-0.8689-0.09961-1.043 0.26239-0.16216 0.03231-0.43945-0.36523-0.43945-0.26312 0-0.34375-0.12262-0.34375-0.5293 0-0.44736-0.06861-0.5293-0.44141-0.5293z" fill="#fa6831" stroke-width="1.2732"/></g></svg>
